<svg xmlns="http://www.w3.org/2000/svg" version="1.1" xmlns:xlink="http://www.w3.org/1999/xlink" xmlns:svgjs="http://svgjs.dev/svgjs" width="1440" height="560" preserveAspectRatio="none" viewBox="0 0 1440 560"><g mask="url(&quot;#SvgjsMask1007&quot;)" fill="none"><path d="M 0,-1 C 72,28.6 216,146.4 360,147 C 504,147.6 576,7.2 720,2 C 864,-3.2 936,108 1080,121 C 1224,134 1368,77.8 1440,67L1440 560L0 560z" fill="rgba(0, 0, 0, 1)"></path><path d="M 0,347 C 57.6,325.4 172.8,250.6 288,239 C 403.2,227.4 460.8,296.6 576,289 C 691.2,281.4 748.8,184.2 864,201 C 979.2,217.8 1036.8,368.4 1152,373 C 1267.2,377.6 1382.4,253.8 1440,224L1440 560L0 560z" fill="rgba(255, 255, 255, 1)"></path><path d="M 0,451 C 72,469 216,553.4 360,541 C 504,528.6 576,396.8 720,389 C 864,381.2 936,495.8 1080,502 C 1224,508.2 1368,436.4 1440,420L1440 560L0 560z" fill="rgba(0, 0, 0, 1)"></path></g><defs><mask id="SvgjsMask1007"><rect width="1440" height="560" fill="#ffffff"></rect></mask></defs></svg>